<svg xmlns="http://www.w3.org/2000/svg" width="120" height="76" id="payment"><g fill="none" fill-rule="evenodd"><path fill="#F4F4F4" d="M111.999 0H8C3.582 0 0 3.59 0 8.008v59.984C0 72.415 3.591 76 8.001 76H112c4.419 0 8.001-3.59 8.001-8.008V8.008C120 3.585 116.409 0 111.999 0Z"></path><ellipse cx="59.235" cy="37.517" fill="#227FBB" rx="33.009" ry="33.015"></ellipse><path fill="#FFF" d="M64.127 43.486v3.988c-.525.329-1.086.619-1.683.869-1.428.599-2.993.898-4.695.898-1.701 0-3.266-.3-4.695-.898-1.428-.599-2.652-1.424-3.67-2.474-1.02-1.05-1.817-2.29-2.395-3.719-.578-1.429-.867-2.973-.867-4.633 0-1.66.29-3.203.867-4.632.578-1.429 1.376-2.668 2.395-3.719 1.018-1.05 2.242-1.875 3.67-2.474 1.429-.599 2.994-.898 4.695-.898 1.702 0 3.267.3 4.695.898.597.25 1.158.54 1.683.87v3.987a8.213 8.213 0 0 0-2.912-2.21c-1.03-.472-2.184-.709-3.466-.709-1.281 0-2.437.237-3.466.71a8.213 8.213 0 0 0-2.647 1.906 8.408 8.408 0 0 0-1.701 2.82 9.892 9.892 0 0 0-.599 3.451c0 1.22.2 2.37.599 3.451a8.408 8.408 0 0 0 1.701 2.82 8.213 8.213 0 0 0 2.647 1.908c1.03.472 2.185.709 3.466.709 0 0-1.281 0 0 0 1.282 0 2.437-.237 3.466-.71a8.213 8.213 0 0 0 2.912-2.21Zm-34.51 1.973 8.95-8.887c.314-.294.619-.614.913-.961.294-.347.557-.71.788-1.087a5.62 5.62 0 0 0 .551-1.198c.137-.42.205-.861.205-1.324 0-.546-.1-1.04-.3-1.48a3.252 3.252 0 0 0-.819-1.12 3.734 3.734 0 0 0-1.229-.709 4.433 4.433 0 0 0-1.496-.252c-1.093 0-1.996.305-2.71.914-.714.61-1.166 1.45-1.355 2.521l-3.277-.283c.147-.988.436-1.844.867-2.569a6.218 6.218 0 0 1 1.607-1.812 6.534 6.534 0 0 1 2.205-1.071c.83-.231 1.728-.347 2.694-.347.967 0 1.875.131 2.726.394.85.263 1.596.651 2.237 1.166a5.452 5.452 0 0 1 1.512 1.922c.368.767.552 1.665.552 2.695a6.3 6.3 0 0 1-.331 2.064 8.71 8.71 0 0 1-.867 1.812 11.232 11.232 0 0 1-1.228 1.607c-.463.505-.946.998-1.45 1.482l-7.341 7.09h11.217v2.648h-14.62v-3.215Zm47.61 3.782c-1.702 0-3.267-.3-4.696-.898-1.428-.599-2.652-1.424-3.67-2.474-1.02-1.05-1.817-2.29-2.395-3.719-.578-1.429-.867-2.973-.867-4.633 0-1.66.29-3.203.867-4.632.578-1.429 1.376-2.668 2.395-3.719 1.018-1.05 2.242-1.875 3.67-2.474 1.429-.599 2.994-.898 4.695-.898 1.702 0 3.267.3 4.695.898 1.428.599 2.652 1.424 3.67 2.474 1.02 1.05 1.818 2.29 2.395 3.719.578 1.429.867 2.973.867 4.632 0 1.66-.289 3.204-.867 4.633-.577 1.429-1.375 2.668-2.394 3.719-1.019 1.05-2.243 1.875-3.671 2.474-1.428.599-2.993.898-4.695.898Zm0-2.836c1.28 0 2.436-.237 3.465-.71a8.213 8.213 0 0 0 2.647-1.906 8.408 8.408 0 0 0 1.701-2.82c.4-1.083.6-2.233.6-3.452 0-1.218-.2-2.368-.6-3.45a8.408 8.408 0 0 0-1.701-2.82 8.213 8.213 0 0 0-2.647-1.908c-1.03-.472-2.184-.709-3.466-.709-1.281 0-2.436.237-3.466.71a8.213 8.213 0 0 0-2.647 1.906 8.408 8.408 0 0 0-1.701 2.82 9.892 9.892 0 0 0-.599 3.451c0 1.22.2 2.37.599 3.451a8.408 8.408 0 0 0 1.701 2.82 8.213 8.213 0 0 0 2.647 1.908c1.03.472 2.185.709 3.466.709 0 0-1.281 0 0 0Z"></path></g></svg>